<?xml version="1.0" encoding="UTF-8" standalone="no"?>
<svg
   xmlns:dc="http://purl.org/dc/elements/1.1/"
   xmlns:cc="http://creativecommons.org/ns#"
   xmlns:rdf="http://www.w3.org/1999/02/22-rdf-syntax-ns#"
   xmlns:svg="http://www.w3.org/2000/svg"
   xmlns="http://www.w3.org/2000/svg"
   version="1.1"
   id="svg2"
   width="320"
   height="320"
   viewBox="0 0 320 320">
  <metadata
     id="metadata8">
    <rdf:RDF>
      <cc:Work
         rdf:about="">
        <dc:format>image/svg+xml</dc:format>
        <dc:type
           rdf:resource="http://purl.org/dc/dcmitype/StillImage" />
        <dc:title></dc:title>
      </cc:Work>
    </rdf:RDF>
  </metadata>
  <defs
     id="defs6" />
  <rect
     y="-1.4210855e-14"
     x="-1.4721377e-05"
     height="320"
     width="320"
     id="rect37"
     style="fill:#5a5a5a;fill-opacity:1;stroke-width:1.28149259" />
  <path
     id="rect32"
     d="m 156.24206,44.162109 c -0.80724,0.2934 -1.58826,0.851258 -2.35742,1.701172 -1.62761,1.798491 -1.89659,4.621668 -2.4043,25.169922 -0.39996,16.187046 -0.9211,23.25707 -1.73046,23.525391 -0.84206,0.27916 -1.25053,-4.911789 -1.5,-19.064453 -0.30737,-17.437427 -0.53813,-19.666783 -2.2461,-21.552735 -2.31832,-2.559914 -5.75168,-2.715269 -7.8125,-0.353515 -1.25641,1.43988 -1.64905,6.861023 -2.21484,30.591797 -0.66239,27.782032 -1.4724,35.154552 -3.625,33.001952 -0.54015,-0.54015 -2.43598,-5.41973 -4.21289,-10.84375 -3.41889,-10.436201 -6.45851,-14.308852 -10.12891,-12.90039 -1.65384,0.634637 -1.76931,2.002108 -1.4082,16.79688 0.4711,19.30116 1.31151,21.76546 12.58984,36.91992 13.3019,17.87349 13.68981,19.51094 12.20313,51.68359 -1.09791,23.75945 -3.54571,60.97343 -4.58203,69.67578 -0.33891,2.84589 -0.31682,5.65839 0.0488,6.25 0.44825,0.7253 9.61242,1.07422 28.13672,1.07422 22.83027,0 27.56597,-0.23991 28.01953,-1.42187 0.30018,-0.78226 -0.40564,-13.94476 -1.56836,-29.25 -1.16273,-15.30524 -2.61781,-40.65313 -3.23242,-56.32813 l -1.11719,-28.5 2.74024,-8.5 c 2.31977,-7.19458 2.8958,-11.34121 3.75195,-27 1.34786,-24.65214 0.38381,-53.716007 -1.86523,-56.201171 -2.06713,-2.284152 -4.49645,-2.285784 -7.31446,-0.0039 -2.06497,1.672116 -2.25413,2.844214 -2.75781,17.054688 -0.29744,8.391649 -0.89363,14.894703 -1.32422,14.453123 -0.43059,-0.441566 -1.09455,-10.027732 -1.47656,-21.302732 -0.55031,-16.241816 -1.01211,-20.863503 -2.22461,-22.25 -2.06255,-2.358533 -5.49613,-2.20718 -7.80469,0.34375 -1.6781,1.854278 -1.93736,4.146286 -2.26757,20.046875 -0.2664,12.827681 -0.6989,17.843758 -1.51172,17.574218 -0.78841,-0.261447 -1.29018,-7.665888 -1.63672,-24.126953 -0.46392,-22.036639 -0.64034,-23.853987 -2.44141,-25.169922 -0.70959,-0.518456 -1.38557,-0.876156 -2.03906,-1.09375 z M 81.833855,118.35156 c -0.94465,-0.0431 -1.98577,0.27827 -3.06641,0.98633 -2.18401,1.43102 -2.35783,2.19417 -2.33593,10.27344 0.013,4.79982 0.44236,14.12589 0.95312,20.72461 0.85477,11.0433 0.3645,15.177 -1.56836,13.24414 -0.34353,-0.34353 -1.20579,-7.7388 -1.91601,-16.4336 -0.71021,-8.6948 -1.61464,-16.60815 -2.00977,-17.58593 -1.70044,-4.20788 -7.31499,-4.20786 -8.92969,0 -0.3752,0.97775 -0.16512,11.00231 0.4668,22.27734 1.88697,33.66853 0.6212,39.74355 -5.20898,25 -3.35609,-8.48697 -6.29033,-12.21811 -9.27344,-11.79101 -1.89532,0.27136 -2.02964,0.95 -1.91797,9.79101 0.13579,10.75117 1.74023,19.78324 4.4668,25.15234 1.02002,2.00859 5.48141,8.01484 9.91406,13.34766 11.21935,13.49774 11.89865,15.07979 13.01172,30.29102 0.51152,6.99042 0.94298,17.09648 0.95898,22.45898 l 0.0293,9.75 h 21.4414 c 12.569935,0 21.684595,-0.3961 22.031265,-0.95703 0.32523,-0.52624 -0.18834,-6.71374 -1.14258,-13.75 -2.08134,-15.34705 -2.3882,-44.5444 -0.57813,-55.08398 1.88588,-10.98099 -1.11858,-63.53604 -3.81836,-66.78907 -1.77111,-2.13406 -6.66649,-1.78489 -7.92383,0.56446 -0.69637,1.30119 -0.83831,6.71782 -0.41015,15.75 0.50425,10.63713 0.38211,13.51253 -0.53906,12.65039 -0.72819,-0.68154 -1.72456,-8.21113 -2.5586,-19.34571 -1.08713,-14.51355 -1.71556,-18.61834 -3.087895,-20.13476 -2.20063,-2.43166 -4.63592,-2.42088 -6.85156,0.0273 -1.58015,1.74605 -1.67787,3.51283 -1.02149,18.5 0.50269,11.4777 0.39953,16.56836 -0.33593,16.56836 -1.19474,0 -1.71233,-4.10024 -3.18555,-25.19336 -0.56448,-8.08207 -1.44144,-15.7848 -1.94727,-17.11523 -0.76741,-2.01845 -2.07206,-3.10585 -3.64648,-3.17774 z m 156.794925,15.08985 c -1.77371,-0.0385 -3.34962,1.30036 -4.10937,3.75195 -0.53598,1.7295 -1.49287,11.01953 -2.125,20.64453 -0.63212,9.625 -1.56296,17.92867 -2.06836,18.45117 -0.55981,0.57874 -0.91797,-5.56262 -0.91797,-15.71484 0,-15.74432 -0.1119,-16.72551 -2.03711,-17.75586 -2.50301,-1.33956 -5.54814,-0.48603 -6.45313,1.80859 -0.37135,0.94156 -1.29364,9.36094 -2.04882,18.71094 -0.75518,9.35 -1.39172,17.13863 -1.41602,17.30859 -0.0243,0.16996 -0.53643,0.005 -1.13672,-0.36523 -0.75384,-0.4659 -0.87187,-4.19236 -0.38086,-12.05078 0.60484,-9.68021 0.46583,-11.75195 -0.93164,-13.88477 -1.85113,-2.82518 -4.71975,-3.24119 -6.95312,-1.00781 -1.95323,1.95323 -2.46682,7.05796 -3.66016,36.26953 -0.89097,21.80986 -0.81543,25.05155 0.76172,32 1.91035,8.41645 2.06425,26.02606 0.37305,42.67188 -0.49964,4.91783 -0.68242,9.53033 -0.40625,10.25 0.39037,1.0173 4.93037,1.30859 20.39648,1.30859 h 19.89258 l 0.0352,-3.75 c 0.10382,-11.03178 2.03,-30.1963 3.35156,-33.34375 0.82983,-1.97635 4.94317,-7.79851 9.14062,-12.93945 11.45371,-14.02824 13.41931,-19.11575 14.91602,-38.59766 0.59643,-7.76333 -0.53713,-10.10851 -4.30664,-8.91211 -2.51709,0.79889 -4.61116,4.0433 -7.27149,11.26172 -1.17203,3.18014 -2.57217,6.34004 -3.11133,7.02148 -2.62411,3.31657 -2.96467,-0.719 -2.2539,-26.77343 0.71858,-26.34088 0.69845,-26.78978 -1.31836,-27.86914 -2.64711,-1.41669 -3.40993,-1.38345 -5.64648,0.25195 -1.57601,1.15242 -2.00459,3.73871 -2.93946,17.66992 -0.7929,11.81574 -1.45846,16.43785 -2.41015,16.75391 -1.0642,0.35342 -1.25451,-3.49818 -1,-20.23828 0.28812,-18.95057 0.16414,-20.78729 -1.48243,-22 -0.83013,-0.61141 -1.67619,-0.91414 -2.48242,-0.93164 z"
     style="stroke-width:1.54719722;fill:#ffffff" />
</svg>
