<?xml version="1.0" encoding="UTF-8" standalone="no"?>
<svg xmlns:dc="http://purl.org/dc/elements/1.1/" xmlns:cc="http://creativecommons.org/ns#" xmlns:rdf="http://www.w3.org/1999/02/22-rdf-syntax-ns#" xmlns:svg="http://www.w3.org/2000/svg" xmlns="http://www.w3.org/2000/svg" version="1.1" id="svg2" width="320" height="320" viewBox="0 0 320 320"><metadata id="metadata8"><rdf:RDF><cc:Work rdf:about=""><dc:format>image/svg+xml</dc:format><dc:type rdf:resource="http://purl.org/dc/dcmitype/StillImage" /><dc:title></dc:title></cc:Work></rdf:RDF></metadata><defs id="defs6" /><rect y="-1.4e-14" x="-1.4e-05" height="320" width="320" id="rect37" style="fill:#5a5a5a;fill-opacity:1;stroke-width:1.2" /><path id="rect32" d="m 156.2,44.1 c -0.8,0.2 -1.5,0.8 -2.3,1.7 -1.6,1.7 -1.8,4.6 -2.4,25.1 -0.3,16.1 -0.9,23.2 -1.7,23.5 -0.8,0.2 -1.2,-4.9 -1.5,-19.0 -0.3,-17.4 -0.5,-19.6 -2.2,-21.5 -2.3,-2.5 -5.7,-2.7 -7.8,-0.3 -1.2,1.4 -1.6,6.8 -2.2,30.5 -0.6,27.7 -1.4,35.1 -3.6,33.0 -0.5,-0.5 -2.4,-5.4 -4.2,-10.8 -3.4,-10.4 -6.4,-14.3 -10.1,-12.9 -1.6,0.6 -1.7,2.0 -1.4,16.7 0.4,19.3 1.3,21.7 12.5,36.9 13.3,17.8 13.6,19.5 12.2,51.6 -1.0,23.7 -3.5,60.9 -4.5,69.6 -0.3,2.8 -0.3,5.6 0.0,6.25 0.4,0.7 9.6,1.0 28.1,1.0 22.8,0 27.5,-0.2 28.0,-1.4 0.3,-0.7 -0.4,-13.9 -1.5,-29.25 -1.1,-15.3 -2.6,-40.6 -3.2,-56.3 l -1.1,-28.5 2.7,-8.5 c 2.3,-7.1 2.8,-11.3 3.7,-27 1.3,-24.6 0.3,-53.7 -1.8,-56.2 -2.0,-2.2 -4.4,-2.2 -7.3,-0.0 -2.0,1.6 -2.2,2.8 -2.7,17.0 -0.2,8.3 -0.8,14.8 -1.3,14.4 -0.4,-0.4 -1.0,-10.0 -1.4,-21.3 -0.5,-16.2 -1.0,-20.8 -2.2,-22.25 -2.0,-2.3 -5.4,-2.2 -7.8,0.3 -1.6,1.8 -1.9,4.1 -2.2,20.0 -0.2,12.8 -0.6,17.8 -1.5,17.5 -0.7,-0.2 -1.2,-7.6 -1.6,-24.1 -0.4,-22.0 -0.6,-23.8 -2.4,-25.1 -0.7,-0.5 -1.3,-0.8 -2.0,-1.0 z M 81.8,118.3 c -0.9,-0.0 -1.9,0.2 -3.0,0.9 -2.1,1.4 -2.3,2.1 -2.3,10.2 0.0,4.7 0.4,14.1 0.9,20.7 0.8,11.0 0.3,15.1 -1.5,13.2 -0.3,-0.3 -1.2,-7.7 -1.9,-16.4 -0.7,-8.6 -1.6,-16.6 -2.0,-17.5 -1.7,-4.2 -7.3,-4.2 -8.9,0 -0.3,0.9 -0.1,11.0 0.4,22.2 1.8,33.6 0.6,39.7 -5.2,25 -3.3,-8.4 -6.2,-12.2 -9.2,-11.7 -1.8,0.2 -2.0,0.95 -1.9,9.7 0.1,10.7 1.7,19.7 4.4,25.1 1.0,2.0 5.4,8.0 9.9,13.3 11.2,13.4 11.8,15.0 13.0,30.2 0.5,6.9 0.9,17.0 0.9,22.4 l 0.0,9.75 h 21.4 c 12.5,0 21.6,-0.3 22.0,-0.9 0.3,-0.5 -0.1,-6.7 -1.1,-13.75 -2.0,-15.3 -2.3,-44.5 -0.5,-55.0 1.8,-10.9 -1.1,-63.5 -3.8,-66.7 -1.7,-2.1 -6.6,-1.7 -7.9,0.5 -0.6,1.3 -0.8,6.7 -0.4,15.75 0.5,10.6 0.3,13.5 -0.5,12.6 -0.7,-0.6 -1.7,-8.2 -2.5,-19.3 -1.0,-14.5 -1.7,-18.6 -3.0,-20.1 -2.2,-2.4 -4.6,-2.4 -6.8,0.0 -1.5,1.7 -1.6,3.5 -1.0,18.5 0.5,11.4 0.3,16.5 -0.3,16.5 -1.1,0 -1.7,-4.1 -3.1,-25.1 -0.5,-8.0 -1.4,-15.7 -1.9,-17.1 -0.7,-2.0 -2.0,-3.1 -3.6,-3.1 z m 156.7,15.0 c -1.7,-0.0 -3.3,1.3 -4.1,3.7 -0.5,1.7 -1.4,11.0 -2.1,20.6 -0.6,9.6 -1.5,17.9 -2.0,18.4 -0.5,0.5 -0.9,-5.5 -0.9,-15.7 0,-15.7 -0.1,-16.7 -2.0,-17.7 -2.5,-1.3 -5.5,-0.4 -6.4,1.8 -0.3,0.9 -1.2,9.3 -2.0,18.7 -0.7,9.35 -1.3,17.1 -1.4,17.3 -0.0,0.1 -0.5,0.0 -1.1,-0.3 -0.7,-0.4 -0.8,-4.1 -0.3,-12.0 0.6,-9.6 0.4,-11.7 -0.9,-13.8 -1.8,-2.8 -4.7,-3.2 -6.9,-1.0 -1.9,1.9 -2.4,7.0 -3.6,36.2 -0.8,21.8 -0.8,25.0 0.7,32 1.9,8.4 2.0,26.0 0.3,42.6 -0.4,4.9 -0.6,9.5 -0.4,10.25 0.3,1.0 4.9,1.3 20.3,1.3 h 19.8 l 0.0,-3.75 c 0.1,-11.0 2.03,-30.1 3.3,-33.3 0.8,-1.9 4.9,-7.7 9.1,-12.9 11.4,-14.0 13.4,-19.1 14.9,-38.5 0.5,-7.7 -0.5,-10.1 -4.3,-8.9 -2.5,0.7 -4.6,4.0 -7.2,11.2 -1.1,3.1 -2.5,6.3 -3.1,7.0 -2.6,3.3 -2.9,-0.7 -2.2,-26.7 0.7,-26.3 0.6,-26.7 -1.3,-27.8 -2.6,-1.4 -3.4,-1.3 -5.6,0.2 -1.5,1.1 -2.0,3.7 -2.9,17.6 -0.7,11.8 -1.4,16.4 -2.4,16.7 -1.0,0.3 -1.2,-3.4 -1,-20.2 0.2,-18.9 0.1,-20.7 -1.4,-22 -0.8,-0.6 -1.6,-0.9 -2.4,-0.9 z" style="stroke-width:1.5;fill:#ffffff" />
</svg>
